<svg width="20" height="16" viewBox="0 0 20 16" fill="none" xmlns="http://www.w3.org/2000/svg">
<path d="M17.6562 0.65625H2.34375C1.05141 0.65625 0 1.70766 0 3V13C0 14.2923 1.05141 15.3438 2.34375 15.3438H17.6562C18.9486 15.3438 20 14.2923 20 13V3C20 1.70766 18.9486 0.65625 17.6562 0.65625ZM18.4375 13C18.4375 13.4308 18.087 13.7812 17.6562 13.7812H2.34375C1.91297 13.7812 1.5625 13.4308 1.5625 13V3C1.5625 2.56922 1.91297 2.21875 2.34375 2.21875H17.6562C18.087 2.21875 18.4375 2.56922 18.4375 3V13Z" fill="#A2792C"/>
<path d="M18.304 1.62891L9.99914 7.80613L1.6943 1.62891L0.761719 2.88262L9.99914 9.75347L19.2366 2.88262L18.304 1.62891Z" fill="#A2792C"/>
</svg>
