<svg width="10" height="14" viewBox="0 0 10 14" fill="none" xmlns="http://www.w3.org/2000/svg">
<path d="M5.0013 7.84904e-05C3.91833 7.84904e-05 2.87972 0.430286 2.11395 1.19606C1.34818 1.96183 0.917969 3.00044 0.917969 4.08341C0.917969 4.39283 1.04089 4.68958 1.25968 4.90837C1.47847 5.12716 1.77522 5.25008 2.08464 5.25008C2.39405 5.25008 2.6908 5.12716 2.90959 4.90837C3.12839 4.68958 3.2513 4.39283 3.2513 4.08341C3.2513 3.73729 3.35394 3.39895 3.54623 3.11116C3.73852 2.82338 4.01184 2.59908 4.33161 2.46662C4.65138 2.33417 5.00324 2.29951 5.34271 2.36704C5.68218 2.43456 5.994 2.60123 6.23874 2.84597C6.48348 3.09072 6.65015 3.40254 6.71768 3.742C6.7852 4.08147 6.75055 4.43334 6.61809 4.75311C6.48564 5.07288 6.26134 5.34619 5.97355 5.53848C5.68576 5.73078 5.34742 5.83341 5.0013 5.83341C4.69188 5.83341 4.39514 5.95633 4.17634 6.17512C3.95755 6.39391 3.83464 6.69066 3.83464 7.00008V9.33341C3.83464 9.64283 3.95755 9.93958 4.17634 10.1584C4.39514 10.3772 4.69188 10.5001 5.0013 10.5001C5.31072 10.5001 5.60747 10.3772 5.82626 10.1584C6.04505 9.93958 6.16797 9.64283 6.16797 9.33341V7.98008C7.11076 7.70475 7.92225 7.09792 8.45287 6.27142C8.9835 5.44493 9.19749 4.45449 9.05541 3.48265C8.91333 2.51082 8.42475 1.62309 7.67973 0.9831C6.9347 0.343106 5.98345 -0.00601706 5.0013 7.84904e-05Z" fill="white"/>
<path d="M5.00065 13.9974C5.64498 13.9974 6.16732 13.4751 6.16732 12.8307C6.16732 12.1864 5.64498 11.6641 5.00065 11.6641C4.35632 11.6641 3.83398 12.1864 3.83398 12.8307C3.83398 13.4751 4.35632 13.9974 5.00065 13.9974Z" fill="white"/>
</svg>
