<svg width="20" height="20" viewBox="0 0 20 20" fill="none" xmlns="http://www.w3.org/2000/svg">
<path d="M20 10.1172V16.875C20 18.5982 18.5982 20 16.875 20H3.125C1.40182 20 0 18.5982 0 16.875V3.125C0 1.40182 1.40182 0 3.125 0H9.92188C10.3534 0 10.7031 0.349731 10.7031 0.78125C10.7031 1.21277 10.3534 1.5625 9.92188 1.5625H3.125C2.26349 1.5625 1.5625 2.26349 1.5625 3.125V16.875C1.5625 17.7365 2.26349 18.4375 3.125 18.4375H16.875C17.7365 18.4375 18.4375 17.7365 18.4375 16.875V10.1172C18.4375 9.68567 18.7872 9.33594 19.2188 9.33594C19.6503 9.33594 20 9.68567 20 10.1172ZM10.6706 7.25723C10.6854 7.2879 10.7021 7.31781 10.7205 7.34619C10.7797 7.43729 10.9178 7.64633 11.0738 7.86041L8.51013 10.424C8.20496 10.7292 8.20496 11.2239 8.51013 11.5289C8.66257 11.6815 8.86261 11.7578 9.0625 11.7578C9.26239 11.7578 9.46243 11.6815 9.61487 11.5291L11.0294 10.1146C11.0629 10.1759 11.0954 10.2377 11.1256 10.2977C11.2657 10.5933 11.3367 10.8913 11.3367 11.1838C11.3367 11.983 10.88 12.8659 10.0154 13.7379L9.94339 13.8004C9.91486 13.8251 9.88815 13.8518 9.86343 13.8803L9.80133 13.952C8.92853 14.8167 8.04581 15.2734 7.24701 15.2734C6.80649 15.2734 6.39908 15.1376 6.00327 14.8587C5.98907 14.8462 5.97443 14.834 5.95947 14.8224L5.88348 14.7643C5.77057 14.6777 5.65887 14.5795 5.55161 14.4722C5.02274 13.9441 4.76562 13.3945 4.76562 12.7921C4.76562 11.9926 5.22247 11.1098 6.08704 10.2376L6.15921 10.1752C6.18744 10.1506 6.21399 10.1242 6.2384 10.096L6.30081 10.024C6.98486 9.34601 7.64786 8.92487 8.27179 8.77213C8.6908 8.66959 8.94745 8.24661 8.84476 7.82745C8.74222 7.40845 8.3194 7.15179 7.90024 7.25433C6.98929 7.47742 6.0733 8.04352 5.17746 8.93753C5.16403 8.95096 5.15106 8.96469 5.1387 8.97903L5.09399 9.03061L5.04242 9.07532C5.02808 9.08768 5.01419 9.10065 5.00092 9.11392C3.82477 10.2919 3.20312 11.5637 3.20312 12.7921C3.20312 13.8161 3.62183 14.7534 4.44748 15.5779C4.60281 15.733 4.76608 15.8765 4.93286 16.0043L4.95804 16.0236C4.98016 16.0443 5.00366 16.0638 5.02823 16.0818C5.70786 16.5823 6.45432 16.8359 7.24701 16.8359C8.47458 16.8359 9.7464 16.2143 10.925 15.0383C10.9386 15.0247 10.9515 15.0107 10.9641 14.9962L11.0083 14.9451L11.0597 14.9007C11.0741 14.8882 11.0881 14.8752 11.1015 14.8618C12.2775 13.6838 12.8992 12.412 12.8992 11.1838C12.8992 10.6541 12.7757 10.1273 12.5323 9.61777C12.5304 9.61349 12.5284 9.60922 12.5262 9.6051C12.4712 9.49493 12.337 9.23492 12.1721 8.97171L14.693 6.45081C14.998 6.14578 14.998 5.65109 14.693 5.34592C14.3878 5.04089 13.8931 5.04089 13.5881 5.34592L12.1948 6.7392C12.1483 6.67191 12.1024 6.60385 12.0598 6.53946C11.9313 6.25641 11.8663 5.97122 11.8663 5.69107C11.8663 4.89182 12.3232 4.00909 13.1876 3.1369L13.2597 3.07449C13.2883 3.04977 13.315 3.02322 13.3395 2.99469L13.4015 2.92282C14.2744 2.05826 15.1573 1.60141 15.956 1.60141C16.3965 1.60141 16.804 1.73721 17.1999 2.0163C17.2141 2.02881 17.2285 2.04086 17.2437 2.05246L17.3195 2.1106C17.4323 2.19711 17.5439 2.29538 17.6515 2.40265C18.1804 2.93076 18.4375 3.48038 18.4375 4.08295C18.4375 4.8822 17.9807 5.76508 17.1161 6.63727L17.0439 6.69983C17.0157 6.72424 16.9891 6.75079 16.9647 6.77902L16.9025 6.85089C16.2315 7.51511 15.549 7.92603 14.8737 8.07236C14.4521 8.1636 14.1841 8.57956 14.2755 9.00116C14.3547 9.36722 14.6785 9.61716 15.0383 9.61716C15.0931 9.61716 15.1486 9.61151 15.2043 9.5993C16.1838 9.38736 17.133 8.82812 18.0258 7.93732C18.0392 7.92404 18.0521 7.91016 18.0646 7.89581L18.1091 7.84424L18.1609 7.79953C18.175 7.78717 18.1889 7.7742 18.2022 7.76093C19.3784 6.5831 20 5.31128 20 4.08295C20 3.05893 19.5813 2.12158 18.7556 1.29715C18.6002 1.14182 18.4369 0.998383 18.2703 0.870667L18.2449 0.851135C18.2228 0.830536 18.1993 0.811157 18.1749 0.793152C17.4954 0.292664 16.7488 0.0389099 15.9561 0.0389099C14.7287 0.0389099 13.4569 0.660553 12.2781 1.8367C12.2647 1.85013 12.2516 1.86417 12.2391 1.87866L12.1948 1.92993L12.1432 1.97449C12.1289 1.98685 12.115 1.99982 12.1016 2.01324C10.9256 3.19107 10.304 4.46304 10.304 5.69122C10.304 6.22086 10.4272 6.74774 10.6706 7.25723Z" fill="white"/>
</svg>
