<svg width="17" height="17" viewBox="0 0 17 17" fill="none" xmlns="http://www.w3.org/2000/svg">
<path d="M1.444 7.99917C1.35096 7.99917 1.25792 7.98829 1.16367 7.96654C0.514792 7.81188 0.113625 7.16058 0.267083 6.51171C1.17817 2.67767 4.56392 0 8.49946 0C10.7397 0 12.8482 0.866375 14.4372 2.44083C14.9109 2.91088 14.9157 3.67575 14.4457 4.14942C13.9744 4.62308 13.212 4.62792 12.7359 4.15788C11.6025 3.03533 10.0981 2.41667 8.49946 2.41667C5.68888 2.41667 3.26979 4.32946 2.6185 7.07117C2.48558 7.62579 1.99017 7.99917 1.444 7.99917Z" fill="#A2792C"/>
<path d="M8.49901 16.9162C6.25876 16.9162 4.15022 16.0498 2.56126 14.4754C2.0876 14.0053 2.08276 13.2404 2.5528 12.7668C3.02405 12.2919 3.78651 12.2883 4.2626 12.7583C5.39601 13.8809 6.90039 14.4995 8.49901 14.4995C11.3096 14.4995 13.7287 12.5867 14.38 9.84504C14.5346 9.19495 15.1871 8.79983 15.8348 8.94966C16.4837 9.10312 16.8848 9.75562 16.7302 10.4045C15.8203 14.2385 12.4346 16.9162 8.49901 16.9162Z" fill="#A2792C"/>
</svg>
