<svg width="20" height="20" viewBox="0 0 20 20" fill="none" xmlns="http://www.w3.org/2000/svg">
<path d="M0 20L1.40628 14.8646C0.538831 13.3616 0.0825537 11.6567 0.0831912 9.90996C0.0854224 4.44563 4.53217 0 9.99633 0C12.6479 0.0011156 15.1368 1.0332 17.0085 2.90643C18.8799 4.77967 19.9103 7.26967 19.9093 9.91792C19.9069 15.3821 15.4595 19.8284 9.99633 19.8284C9.99602 19.8284 9.99649 19.8284 9.99633 19.8284H9.99203C8.33299 19.8277 6.70295 19.4116 5.25507 18.6219L0 20ZM5.49843 16.8279L5.79948 17.0062C7.06424 17.7569 8.51435 18.1539 9.99315 18.1547H9.99633C14.5374 18.1547 18.2335 14.4592 18.2355 9.91729C18.2362 7.71623 17.3801 5.64649 15.8245 4.0896C14.2687 2.53271 12.2003 1.67482 9.99936 1.67386C5.4546 1.67386 1.75865 5.36886 1.7569 9.91059C1.75626 11.467 2.19166 12.9826 3.01656 14.2942L3.21258 14.606L2.38003 17.6455L5.49843 16.8279Z" fill="#A2792C"/>
<path fill-rule="evenodd" clip-rule="evenodd" d="M7.51863 5.76584C7.33312 5.35339 7.13773 5.3451 6.96115 5.33793C6.81676 5.33172 6.6515 5.33203 6.48655 5.33203C6.32144 5.33203 6.05306 5.39419 5.82612 5.64201C5.59901 5.88983 4.95898 6.48906 4.95898 7.70777C4.95898 8.92663 5.84668 10.1042 5.97051 10.2696C6.09434 10.4349 7.68405 13.0157 10.2016 14.0086C12.294 14.8338 12.7197 14.6697 13.1739 14.6284C13.6281 14.5871 14.6393 14.0292 14.8457 13.4508C15.0522 12.8725 15.0522 12.3768 14.9902 12.2731C14.9282 12.17 14.7631 12.108 14.5155 11.9841C14.2678 11.8603 13.05 11.2609 12.8229 11.1784C12.5958 11.0957 12.4307 11.0545 12.2656 11.3025C12.1004 11.5502 11.6261 12.108 11.4815 12.2731C11.337 12.4387 11.1924 12.4594 10.9448 12.3354C10.6971 12.2112 9.8993 11.9499 8.95296 11.106C8.21667 10.4496 7.71943 9.63869 7.57489 9.39071C7.4305 9.14305 7.5725 9.02066 7.68374 8.88535C7.88406 8.64167 8.22018 8.20357 8.30273 8.03846C8.38528 7.87303 8.34401 7.72848 8.28217 7.60449C8.22018 7.48066 7.73872 6.25574 7.51863 5.76584Z" fill="#A2792C"/>
</svg>
